<svg xmlns="http://www.w3.org/2000/svg" xmlns:xlink="http://www.w3.org/1999/xlink" version="1.1" x="0px" y="0px" viewBox="-252 358.9 89.3 156.25" style="enable-background:new -252 358.9 89.3 125;" xml:space="preserve"><g><path d="M-192.2,436.3c-2.4-5.4-5.7-9.9-10.2-13.3c-4.5-3.4-7.6-3.4-11.9,0.2c-4.2,3.5-7.4,8-9.3,13.4c-1.7,4.8,1.2,9,6,9.1   c1.2-0.4,2.5-0.6,3.6-1.2c2.7-1.4,5.4-1.4,8.2-0.6c2.1,0.6,4.3,1.2,6.4,1.4c1.7,0.1,3.6-0.1,5.3-0.7c2.2-0.7,3.1-2.6,2.7-5   C-191.4,438.4-191.7,437.3-192.2,436.3z"/><path d="M-201.5,418.2c2.1,0.7,3.9-0.2,5.4-1.6c2.7-2.6,4.2-5.8,4.3-10c-0.1-0.5-0.1-1.4-0.3-2.3c-1-4.5-5.2-6-8.6-3   c-3.7,3.3-5.5,7.5-4.4,12.5C-204.7,415.9-203.6,417.5-201.5,418.2z"/><path d="M-216,417.4c2.1,1.3,4.1,1,5.8-0.8c1.8-1.8,2.2-4.1,2.2-6.6c0-0.7,0-1.4-0.1-2.1c-0.4-3.3-1.6-6.1-4.5-7.9   c-2.4-1.5-4.7-1.1-6.4,1.1C-222.5,405.7-220.9,414.4-216,417.4z"/><path d="M-181.6,418.8c-0.2-0.8-0.4-1.5-0.6-2.3c-1.3-3.2-4.3-4.4-7.2-2.7c-1.3,0.8-2.6,1.9-3.4,3.2c-2,2.8-2.7,6-1.5,9.4   c1.1,3.1,4.3,4.5,7.1,3.1C-183.8,427.6-181.2,422.7-181.6,418.8z"/><path d="M-220.2,423.1c-0.2-4.7-2.4-8.4-5.8-10c-3.4-1.6-6.8,0.1-7.5,3.8c-0.8,4.4,1,7.8,4.2,10.6c1.8,1.6,4,2.2,6.4,1   C-220.6,427.3-220.2,425.1-220.2,423.1z"/></g><text x="-252" y="498.9" fill="#000000" font-size="5px" font-weight="bold" font-family="'Helvetica Neue', Helvetica, Arial-Unicode, Arial, Sans-serif">Created by Peter Hacke</text><text x="-252" y="503.9" fill="#000000" font-size="5px" font-weight="bold" font-family="'Helvetica Neue', Helvetica, Arial-Unicode, Arial, Sans-serif">from the Noun Project</text></svg>